<svg id="Layer_1" data-name="Layer 1" xmlns="http://www.w3.org/2000/svg" viewBox="0 0 211.5 50.4"><defs><style>.cls-1{fill:#595757;}.cls-2{fill:#003668;}.cls-3{fill:#e6002d;}.cls-4{fill:#5580c0;}.cls-5{fill:#fff;}</style></defs><path class="cls-1" d="M71.3,48.4l-3.1-6.7v6.7H66.8V40.2h2l3.1,6.7V40.2h1.4v8.2Z" transform="translate(-0.9 -0.1)"/><path class="cls-1" d="M77.5,44.6h1.4a1,1,0,0,0-.4-.9,2.27,2.27,0,0,0-1.3-.3h0a3.81,3.81,0,0,0-1.7.4l-.3-1.1a4.64,4.64,0,0,1,2.1-.4h0a3.71,3.71,0,0,1,2.3.6,2.2,2.2,0,0,1,.8,1.8v3.7H79v-.6a4.7,4.7,0,0,1-.9.6,4.25,4.25,0,0,1-1.1.2,2.35,2.35,0,0,1-1.7-.6,1.78,1.78,0,0,1,.1-2.9A4.06,4.06,0,0,1,77.5,44.6Zm-.4,2.9a1.93,1.93,0,0,0,1-.3,2.17,2.17,0,0,0,.7-.6v-1H77.6a2.42,2.42,0,0,0-1.4.3.75.75,0,0,0-.4.7.6.6,0,0,0,.3.6A1.69,1.69,0,0,0,77.1,47.5Z" transform="translate(-0.9 -0.1)"/><path class="cls-1" d="M83.5,40.6v1.9h1.3v1.1H83.5v3a.71.71,0,0,0,.8.8h.5v1.1H84a2,2,0,0,1-1.4-.4,1.7,1.7,0,0,1-.4-1.3V43.7h-1V42.6h1V40.7h1.3Z" transform="translate(-0.9 -0.1)"/><path class="cls-1" d="M87.5,40.7a1.06,1.06,0,1,1-.3-.6A.6.6,0,0,1,87.5,40.7ZM86,48.4V42.5h1.3v5.9Z" transform="translate(-0.9 -0.1)"/><path class="cls-1" d="M91.7,48.6a3.07,3.07,0,1,1,2.2-.9A3.1,3.1,0,0,1,91.7,48.6Zm0-1.2a1.76,1.76,0,0,0,1.3-.6,1.74,1.74,0,0,0,.5-1.4A2.17,2.17,0,0,0,93,44a1.76,1.76,0,0,0-1.3-.6,1.43,1.43,0,0,0-1.2.6,1.87,1.87,0,0,0-.5,1.4,2.17,2.17,0,0,0,.5,1.4A1.22,1.22,0,0,0,91.7,47.4Z" transform="translate(-0.9 -0.1)"/><path class="cls-1" d="M97.3,45.4v3H96V42.5h1.3v.8a2.34,2.34,0,0,1,.7-.7,1.69,1.69,0,0,1,1-.3,2.06,2.06,0,0,1,1.7.7,2.88,2.88,0,0,1,.6,1.9v3.4H100V45.2a2.65,2.65,0,0,0-.3-1.4,1.05,1.05,0,0,0-.9-.5,1.42,1.42,0,0,0-.6.2,1,1,0,0,0-.5.6A1.79,1.79,0,0,0,97.3,45.4Z" transform="translate(-0.9 -0.1)"/><path class="cls-1" d="M105.3,44.6h1.4a1,1,0,0,0-.4-.9,2.27,2.27,0,0,0-1.3-.3h0a3.81,3.81,0,0,0-1.7.4l-.3-1.1a4.64,4.64,0,0,1,2.1-.4h0a3.71,3.71,0,0,1,2.3.6,2.2,2.2,0,0,1,.8,1.8v3.7h-1.3v-.6a4.7,4.7,0,0,1-.9.6,4.25,4.25,0,0,1-1.1.2,2.35,2.35,0,0,1-1.7-.6,1.78,1.78,0,0,1,.1-2.9A3.44,3.44,0,0,1,105.3,44.6Zm-.4,2.9a1.93,1.93,0,0,0,1-.3,2.17,2.17,0,0,0,.7-.6v-1h-1.2a2.42,2.42,0,0,0-1.4.3.75.75,0,0,0-.4.7.6.6,0,0,0,.3.6A2.24,2.24,0,0,0,104.9,47.5Z" transform="translate(-0.9 -0.1)"/><path class="cls-1" d="M109.6,48.4V39.6h1.3v8.8Z" transform="translate(-0.9 -0.1)"/><path class="cls-1" d="M115.7,46.8l.9-.9a2.55,2.55,0,0,0,.9,1.1,1.92,1.92,0,0,0,1.2.4,2,2,0,0,0,1.1-.3,1.05,1.05,0,0,0,.5-.9,1,1,0,0,0-.5-.8,3.13,3.13,0,0,0-1-.5c-.4-.1-.7-.3-1.1-.4a2.84,2.84,0,0,1-1.4-.9,1.92,1.92,0,0,1-.4-1.2,2.09,2.09,0,0,1,.8-1.6,2.72,2.72,0,0,1,2-.7,3.17,3.17,0,0,1,2,.6,1.34,1.34,0,0,1,.6.7l-.8.9c-.1-.1-.2-.3-.4-.5a1.87,1.87,0,0,0-1.4-.5,1.4,1.4,0,0,0-.9.3.91.91,0,0,0-.4.8c0,.5.5.9,1.6,1.3.2.1.4.1.6.2a4,4,0,0,1,1.6,1,1.74,1.74,0,0,1,.5,1.4,2.29,2.29,0,0,1-.8,1.7,3.14,3.14,0,0,1-2.1.7,3.94,3.94,0,0,1-2-.5A4.15,4.15,0,0,1,115.7,46.8Z" transform="translate(-0.9 -0.1)"/><path class="cls-1" d="M122.5,45.5a2.7,2.7,0,0,1,1-2.2,3.41,3.41,0,0,1,2.4-.9,3.6,3.6,0,0,1,2.2.7l-.4,1.1a2.7,2.7,0,0,0-1.7-.7,2,2,0,0,0-1.5.6,2,2,0,0,0-.6,1.4,1.82,1.82,0,0,0,.6,1.4,2,2,0,0,0,1.5.6,2.74,2.74,0,0,0,1.8-.7l.4,1.1a3.6,3.6,0,0,1-2.2.7,3.24,3.24,0,0,1-2.4-.9A2.78,2.78,0,0,1,122.5,45.5Z" transform="translate(-0.9 -0.1)"/><path class="cls-1" d="M130.9,40.7a1.06,1.06,0,1,1-.3-.6A.6.6,0,0,1,130.9,40.7Zm-1.5,7.7V42.5h1.3v5.9Z" transform="translate(-0.9 -0.1)"/><path class="cls-1" d="M133.3,46.1a1.35,1.35,0,0,0,.5.9,2.46,2.46,0,0,0,1.5.5,2.41,2.41,0,0,0,1.8-.7l.4,1a3.09,3.09,0,0,1-2.3.8,3.24,3.24,0,0,1-2.4-.9,2.94,2.94,0,0,1-.9-2.2,3.11,3.11,0,0,1,.8-2.2,3.14,3.14,0,0,1,4.4,0,2.86,2.86,0,0,1,.8,2.2,1.7,1.7,0,0,1-.1.7h-4.5Zm0-1.1h3.3a1.82,1.82,0,0,0-.5-1.1,1.69,1.69,0,0,0-2.4,0A3.58,3.58,0,0,0,133.3,45Z" transform="translate(-0.9 -0.1)"/><path class="cls-1" d="M140.4,45.4v3h-1.3V42.5h1.3v.8a2.34,2.34,0,0,1,.7-.7,1.69,1.69,0,0,1,1-.3,2.06,2.06,0,0,1,1.7.7,2.88,2.88,0,0,1,.6,1.9v3.4H143V45.2a2.65,2.65,0,0,0-.3-1.4,1.05,1.05,0,0,0-.9-.5,1.42,1.42,0,0,0-.6.2,1,1,0,0,0-.5.6A3.45,3.45,0,0,0,140.4,45.4Z" transform="translate(-0.9 -0.1)"/><path class="cls-1" d="M145.5,45.5a2.7,2.7,0,0,1,1-2.2,3.41,3.41,0,0,1,2.4-.9,3.6,3.6,0,0,1,2.2.7l-.4,1.1a2.7,2.7,0,0,0-1.7-.7,2,2,0,0,0-1.5.6,2,2,0,0,0-.6,1.4,1.82,1.82,0,0,0,.6,1.4,2,2,0,0,0,1.5.6,2.74,2.74,0,0,0,1.8-.7l.4,1.1a3.6,3.6,0,0,1-2.2.7,3.24,3.24,0,0,1-2.4-.9A2.78,2.78,0,0,1,145.5,45.5Z" transform="translate(-0.9 -0.1)"/><path class="cls-1" d="M153.3,46.1a1.35,1.35,0,0,0,.5.9,2.46,2.46,0,0,0,1.5.5,2.41,2.41,0,0,0,1.8-.7l.4,1a3.09,3.09,0,0,1-2.3.8,3.24,3.24,0,0,1-2.4-.9,2.94,2.94,0,0,1-.9-2.2,3.11,3.11,0,0,1,.8-2.2,3.14,3.14,0,0,1,4.4,0,2.86,2.86,0,0,1,.8,2.2,1.7,1.7,0,0,1-.1.7h-4.5Zm0-1.1h3.3a1.82,1.82,0,0,0-.5-1.1,1.69,1.69,0,0,0-2.4,0A2.1,2.1,0,0,0,153.3,45Z" transform="translate(-0.9 -0.1)"/><path class="cls-1" d="M170.7,40.3v8.2h-1.3V41.9l-2.2,6.6h-1.3l-2.2-6.6v6.6h-1.3V40.3h2l2.1,6.4,2.1-6.4Z" transform="translate(-0.9 -0.1)"/><path class="cls-1" d="M176.2,45.6v-3h1.3v5.9h-1.3v-.8a2.34,2.34,0,0,1-.7.7,1.93,1.93,0,0,1-1,.3,2.06,2.06,0,0,1-1.7-.7,2.88,2.88,0,0,1-.6-1.9V42.7h1.3v3.1a2.65,2.65,0,0,0,.3,1.4,1.1,1.1,0,0,0,1,.5,1.42,1.42,0,0,0,.6-.2,1,1,0,0,0,.5-.6A2.77,2.77,0,0,0,176.2,45.6Z" transform="translate(-0.9 -0.1)"/><path class="cls-1" d="M178.6,47.5l.8-.9a3,3,0,0,0,.8.8,1.49,1.49,0,0,0,.9.2,1.88,1.88,0,0,0,.8-.2.57.57,0,0,0,0-1,4.88,4.88,0,0,0-.7-.3c-.3-.1-.7-.2-1-.3a2.89,2.89,0,0,1-1-.6,1.61,1.61,0,0,1-.3-.9,1.31,1.31,0,0,1,.7-1.2,3,3,0,0,1,1.6-.5,2.54,2.54,0,0,1,1.6.5,2.65,2.65,0,0,1,.5.6l-.8.8a1.76,1.76,0,0,0-.4-.5,1.69,1.69,0,0,0-1-.3,1.42,1.42,0,0,0-.6.2c-.2.1-.3.2-.3.4s.1.3.3.4a6.89,6.89,0,0,0,.8.3,4.33,4.33,0,0,0,.5.1,3.16,3.16,0,0,1,1.3.7,1.5,1.5,0,0,1,.4,1.1,1.57,1.57,0,0,1-.7,1.3,3.45,3.45,0,0,1-3.4.1A3,3,0,0,1,178.6,47.5Z" transform="translate(-0.9 -0.1)"/><path class="cls-1" d="M185.6,46.2a1.35,1.35,0,0,0,.5.9,2.46,2.46,0,0,0,1.5.5,2.41,2.41,0,0,0,1.8-.7l.4,1a3.09,3.09,0,0,1-2.3.8,3.24,3.24,0,0,1-2.4-.9,2.94,2.94,0,0,1-.9-2.2,3.11,3.11,0,0,1,.8-2.2,3.14,3.14,0,0,1,4.4,0,2.86,2.86,0,0,1,.8,2.2,1.7,1.7,0,0,1-.1.7h-4.5Zm-.1-1.1h3.3a1.82,1.82,0,0,0-.5-1.1,1.69,1.69,0,0,0-2.4,0A4.87,4.87,0,0,0,185.5,45.1Z" transform="translate(-0.9 -0.1)"/><path class="cls-1" d="M195.2,45.6v-3h1.3v5.9h-1.3v-.8a2.34,2.34,0,0,1-.7.7,1.93,1.93,0,0,1-1,.3,2.06,2.06,0,0,1-1.7-.7,2.88,2.88,0,0,1-.6-1.9V42.7h1.3v3.1a2.65,2.65,0,0,0,.3,1.4,1.1,1.1,0,0,0,1,.5,1.42,1.42,0,0,0,.6-.2,1,1,0,0,0,.5-.6A1.94,1.94,0,0,0,195.2,45.6Z" transform="translate(-0.9 -0.1)"/><path class="cls-1" d="M204.4,42.5a1.86,1.86,0,0,1,1.6.7,2.88,2.88,0,0,1,.6,1.9v3.4h-1.3V45.4A2.65,2.65,0,0,0,205,44a.89.89,0,0,0-.8-.5,1.42,1.42,0,0,0-.6.2.92.92,0,0,0-.4.6,3.09,3.09,0,0,0-.2,1.1v3.1h-1.3V45.4a2.65,2.65,0,0,0-.3-1.4.89.89,0,0,0-.8-.5,1.42,1.42,0,0,0-.6.2.92.92,0,0,0-.4.6,3.73,3.73,0,0,0-.2,1.2h0v3h-1.3V42.6h1.3v.8a1.55,1.55,0,0,1,1.5-.9,1.71,1.71,0,0,1,1.6,1.1,2.85,2.85,0,0,1,.7-.8A2.66,2.66,0,0,1,204.4,42.5Z" transform="translate(-0.9 -0.1)"/><path class="cls-2" d="M39.7,24a9,9,0,0,0-12.9,2.7,9.33,9.33,0,0,1-7.6,4.2,9.06,9.06,0,0,1-8.8-6.7h0V24a10.82,10.82,0,0,1-.5-3.6c0-8.1,8.3-17.2,20.4-17.2,12.3,0,19.3,9.4,21.2,14.6,0-.1-.1-.2-.1-.3A26,26,0,0,0,.9,26c0,12.8,9.2,23.7,22,23.7C33.1,49.7,40,44,43.1,36.1A9.88,9.88,0,0,0,39.7,24Z" transform="translate(-0.9 -0.1)"/><path class="cls-3" d="M51.6,18.3c-1.5-5-8.6-15-21.3-15-12,0-20.4,9.1-20.4,17.2a10.82,10.82,0,0,0,.5,3.6,5.54,5.54,0,0,1-.2-1.8C10.2,13.8,18.7,8,27.4,8A21.42,21.42,0,0,1,48.8,29.4,23.47,23.47,0,0,1,35.7,50.5h0A25.93,25.93,0,0,0,52.8,26.1,29.49,29.49,0,0,0,51.6,18.3Z" transform="translate(-0.9 -0.1)"/><path class="cls-1" d="M74.8,29.9V27h-8V24.8H85.3V27h-8v2.9h6.5v7H81.3V32.1H68.1V29.9Zm9-12.8v6H81.3V19.4h-13V17.1Z" transform="translate(-0.9 -0.1)"/><path class="cls-1" d="M99.5,27.6H88.6V21.5h8.1v-2H88.6V17.3H99.2v6.1H91.1v2h8.4Zm-9.7,1h2.5v1.7H103V28.6h2.5v7.8H89.8ZM103,32.3H92.2v2H103Zm0-15.6h2.5V28H103Z" transform="translate(-0.9 -0.1)"/><path class="cls-1" d="M116.9,28.5V27.3h-8V25.2h18.5v2.1h-8v1.2a6.37,6.37,0,0,1,.7.2,8.64,8.64,0,0,1,1.6,1,4.18,4.18,0,0,1,1.1,1.5,4.25,4.25,0,0,1,0,3.6,4.18,4.18,0,0,1-1.1,1.5,5.37,5.37,0,0,1-1.6,1,6.47,6.47,0,0,1-2,.4,4.77,4.77,0,0,1-2-.4,5.37,5.37,0,0,1-1.6-1,4.18,4.18,0,0,1-1.1-1.5,4.25,4.25,0,0,1,0-3.6,4.18,4.18,0,0,1,1.1-1.5,5.37,5.37,0,0,1,1.6-1A1.88,1.88,0,0,0,116.9,28.5Zm9.2-9.4h-6.8l7.2,3.8-1.1,1.8-7.2-3.8L111,24.7l-1.1-1.8,7.2-3.8h-6.8V17h15.9v2.1Zm-5.4,14a2.74,2.74,0,1,0-.8,1.8A2.17,2.17,0,0,0,120.7,33.1Z" transform="translate(-0.9 -0.1)"/><path class="cls-1" d="M140.6,22a4.48,4.48,0,0,1-.4,2,4.81,4.81,0,0,1-1.2,1.6,6.19,6.19,0,0,1-1.7,1.1,4.92,4.92,0,0,1-2.1.4,5.22,5.22,0,0,1-2.1-.4,5,5,0,0,1-1.7-1.1,6.1,6.1,0,0,1-1.2-1.6,4.48,4.48,0,0,1-.4-2,4.48,4.48,0,0,1,.4-2,4.81,4.81,0,0,1,1.2-1.6,6.19,6.19,0,0,1,1.7-1.1,4.92,4.92,0,0,1,2.1-.4,5.22,5.22,0,0,1,2.1.4,5,5,0,0,1,1.7,1.1,6.1,6.1,0,0,1,1.2,1.6A6.47,6.47,0,0,1,140.6,22Zm-2.4,0a3,3,0,0,0-6,0,2.72,2.72,0,0,0,.9,2.1,2.9,2.9,0,0,0,4.2,0A2.58,2.58,0,0,0,138.2,22Zm7.1,10.4a4.06,4.06,0,0,1-.4,1.9,9.06,9.06,0,0,1-1.1,1.6,6.19,6.19,0,0,1-1.7,1.1,4.64,4.64,0,0,1-2.1.4,5.22,5.22,0,0,1-2.1-.4,6.19,6.19,0,0,1-1.7-1.1,4.19,4.19,0,0,1-1.1-1.6,4.33,4.33,0,0,1-.4-1.9,4.77,4.77,0,0,1,.4-2,9.06,9.06,0,0,1,1.1-1.6,6.19,6.19,0,0,1,1.7-1.1,4.64,4.64,0,0,1,2.1-.4,5.22,5.22,0,0,1,2.1.4,6.19,6.19,0,0,1,1.7,1.1,4.57,4.57,0,0,1,1.1,1.6A4.77,4.77,0,0,1,145.3,32.4Zm-2.4,0a2.52,2.52,0,0,0-.9-2,2.83,2.83,0,0,0-2-.9,2.52,2.52,0,0,0-2,.9,2.57,2.57,0,0,0-.8,2,2.79,2.79,0,0,0,.8,2,2.57,2.57,0,0,0,2,.8,2.79,2.79,0,0,0,2-.8A2.52,2.52,0,0,0,142.9,32.4Zm3.3-5h-2.5V16.7h2.5v4h2.9v2.5h-2.9Z" transform="translate(-0.9 -0.1)"/><path class="cls-1" d="M163.7,32.6v2.2h-13V32.6h4.1V26h2.5v6.6ZM160,30.3V20.1h-8.6V17.8h11V30.2H160Zm7.8,6.5h-2.5V16.7h2.5v8.5h2.6v2.4h-2.6Z" transform="translate(-0.9 -0.1)"/><path class="cls-1" d="M183.4,18v2.2H171.7V18h4.6V16.3h2.6V18ZM172.5,30h15.8v6.7h-2.5V32.2H172.5Zm9.7-5.2a3.53,3.53,0,0,1-.4,1.7,4.51,4.51,0,0,1-1,1.4,3.77,3.77,0,0,1-1.5.9,5.66,5.66,0,0,1-1.8.3,5.23,5.23,0,0,1-1.8-.3,3.77,3.77,0,0,1-1.5-.9,3.59,3.59,0,0,1-1-1.4,4.71,4.71,0,0,1-.4-1.7,3.53,3.53,0,0,1,.4-1.7,4.51,4.51,0,0,1,1-1.4,3.77,3.77,0,0,1,1.5-.9,5.55,5.55,0,0,1,3.6,0,3.77,3.77,0,0,1,1.5.9,5,5,0,0,1,1,1.4A3.53,3.53,0,0,1,182.2,24.8Zm-2.4,0a1.8,1.8,0,0,0-.7-1.5,2.27,2.27,0,0,0-1.6-.6,2.45,2.45,0,0,0-1.6.6,2.06,2.06,0,0,0,0,3.1,2.36,2.36,0,0,0,1.6.7,2.4,2.4,0,0,0,2.3-2.3Zm8.5,4.1h-2.5V16.7h2.5v4.7h2.9v2.5h-2.9Z" transform="translate(-0.9 -0.1)"/><path class="cls-1" d="M205.8,26.6v2.2h-13V26.6h4.1V22.1h2.5v4.5Zm-3.6-1.9V19.3h-8.6V17.1h11v7.5h-2.4Zm-8,11.8v-6h2.5v3.8h13.5v2.2Zm15.6-6.6h-2.5V16.7h2.5v5.4h2.6v2.3h-2.6Z" transform="translate(-0.9 -0.1)"/><path class="cls-4" d="M114.92,13.85h-45a3,3,0,0,1-3-3V5a3,3,0,0,1,3-3h45a3,3,0,0,1,3,3v5.89A3,3,0,0,1,114.92,13.85Z" transform="translate(-0.9 -0.1)"/><path class="cls-5" d="M73.31,8.78a2.65,2.65,0,0,1-1.49-1.52,2.61,2.61,0,0,1-1.48,1.65l-.29-.44a2.4,2.4,0,0,0,1.48-2.21V6.18H70.18V5.69h1.35V4.81h.57v.88h1.34v.49H72.1v.08a2.27,2.27,0,0,0,1.51,2.07Zm-2.07.75h4.87v2.38h-.59V10H71.24Zm4.87-4.8v4.4h-.57v-2h-1V9.08H74V4.85h.56V6.66h1V4.73Z" transform="translate(-0.9 -0.1)"/><path class="cls-5" d="M81.42,6.79a1.9,1.9,0,1,1-1.89-1.67A1.71,1.71,0,0,1,81.42,6.79Zm-3.2,0a1.31,1.31,0,1,0,1.3-1.18A1.2,1.2,0,0,0,78.22,6.79Zm5.21,2.45v2.57H78.74V9.24Zm-4.11.47v1.61h3.53V9.71Zm4.11-5V8.83h-.59V4.74Z" transform="translate(-0.9 -0.1)"/><path class="cls-5" d="M91.56,8.4v.49h-3v1.49H88V8.89H85V8.4ZM85.71,6.35c0-.88,1-1.44,2.54-1.44s2.53.56,2.53,1.44-1,1.44-2.53,1.44S85.71,7.23,85.71,6.35Zm.69,4.9h4.43v.49h-5V9.66h.59v1.59Zm-.06-4.9c0,.59.77,1,1.91,1s1.91-.36,1.91-1-.77-1-1.91-1S86.34,5.76,86.34,6.35Z" transform="translate(-0.9 -0.1)"/><path class="cls-5" d="M95.91,7.93a1.9,1.9,0,0,1-1.47.63,1.7,1.7,0,1,1,0-3.39,1.92,1.92,0,0,1,1.47.61h1.93v-1h.59V9h-.59V7.93Zm-1.47.13a1.22,1.22,0,0,0,1.3-1.2,1.3,1.3,0,1,0-1.3,1.2Zm4,2.46c0,.86-.91,1.37-2.42,1.37s-2.4-.51-2.4-1.37.91-1.36,2.4-1.36S98.45,9.67,98.45,10.52Zm-.58,0c0-.55-.69-.89-1.83-.89s-1.82.34-1.82.89.69.9,1.82.9S97.87,11.08,97.87,10.52ZM96.2,6.27a1.87,1.87,0,0,1,.1.59,1.63,1.63,0,0,1-.1.59h1.64V6.27Z" transform="translate(-0.9 -0.1)"/><path class="cls-5" d="M103.76,5.5a5.38,5.38,0,0,1-3.4,5l-.32-.47A4.85,4.85,0,0,0,103.15,6h-2.79V5.5Zm2.14-.77v7.18h-.59V4.73Z" transform="translate(-0.9 -0.1)"/><path class="cls-5" d="M112,8.67a29.5,29.5,0,0,1-4.55.29l-.07-.49,1.58,0V6.88h.59V8.43c.81,0,1.65-.09,2.4-.19Zm-1.36-.94a9.11,9.11,0,0,0,.2-1.95h-3V5.29h3.58v.37a10.29,10.29,0,0,1-.19,2.14Zm-1.54,3.53h4.2v.49h-4.79V9.64h.59Zm5-4.17v.49h-1.08v2.56h-.59V4.73h.59V7.1h1.08Z" transform="translate(-0.9 -0.1)"/></svg>